<svg width="11" height="15" viewBox="0 0 11 15" fill="none" xmlns="http://www.w3.org/2000/svg">
<path d="M5.68945 15C8.6875 15 10.4648 13.5254 10.4648 11.0449C10.4648 9.16992 9.23438 7.82227 7.32031 7.57812V7.5C8.67773 7.25586 9.75195 5.88867 9.75195 4.42383C9.75195 2.31445 8.12109 0.908203 5.70898 0.908203H0.367188V15H5.68945ZM2.125 2.46094H5.30859C7.01758 2.46094 7.97461 3.23242 7.97461 4.62891C7.97461 6.15234 6.8418 6.98242 4.76172 6.98242H2.125V2.46094ZM2.125 13.4473V8.49609H5.25977C7.50586 8.49609 8.6582 9.32617 8.6582 10.957C8.6582 12.5879 7.54492 13.4473 5.42578 13.4473H2.125Z" fill="#6A6A6D"/>
</svg>
