<svg width="21" height="15" viewBox="0 0 21 15" fill="none" xmlns="http://www.w3.org/2000/svg">
<path d="M19.875 0.325195C20.168 0.325195 20.4121 0.422852 20.6074 0.618164C20.819 0.829753 20.9248 1.08203 20.9248 1.375C20.9248 1.66797 20.819 1.91211 20.6074 2.10742L8.10742 14.6074C7.91211 14.819 7.66797 14.9248 7.375 14.9248C7.08203 14.9248 6.83789 14.819 6.64258 14.6074L0.392578 8.35742C0.18099 8.16211 0.0751953 7.91797 0.0751953 7.625C0.0751953 7.33203 0.18099 7.08789 0.392578 6.89258C0.587891 6.68099 0.832031 6.5752 1.125 6.5752C1.41797 6.5752 1.66211 6.68099 1.85742 6.89258L7.375 12.4102L19.1426 0.642578C19.3379 0.43099 19.582 0.325195 19.875 0.325195Z" fill="white"/>
</svg>
