<svg width="22" height="21" viewBox="0 0 22 21" fill="none" xmlns="http://www.w3.org/2000/svg">
<path opacity="0.684524" d="M21.4062 11.8047H19.3906V19C19.3906 19.2656 19.3125 19.5312 19.1562 19.7969C19 20.0625 18.6797 20.1953 18.1953 20.1953H13.3906V13H8.60938V20.1953H3.80469C3.32031 20.1953 3 20.0625 2.84375 19.7969C2.6875 19.5312 2.60938 19.2656 2.60938 19V11.8047H0.59375C0.234375 11.8047 0.0703125 11.7188 0.101562 11.5469C0.132812 11.375 0.273438 11.1641 0.523438 10.9141L10.1562 1.25781C10.2656 1.14844 10.3906 1.0625 10.5312 1C10.6875 0.9375 10.8438 0.898437 11 0.882812C11.1562 0.898437 11.3047 0.9375 11.4453 1C11.6016 1.04688 11.7344 1.13281 11.8438 1.25781L21.4766 10.8906C21.7266 11.1562 21.8672 11.375 21.8984 11.5469C21.9297 11.7188 21.7656 11.8047 21.4062 11.8047Z" fill="white"/>
</svg>
