<svg width="20" height="21" viewBox="0 0 20 21" fill="none" xmlns="http://www.w3.org/2000/svg">
<path d="M18.3398 2.375H15.625V1.125C15.625 0.955729 15.5599 0.8125 15.4297 0.695312C15.3125 0.565104 15.1693 0.5 15 0.5C14.8307 0.5 14.681 0.565104 14.5508 0.695312C14.4336 0.8125 14.375 0.955729 14.375 1.125V2.375H10.625V1.125C10.625 0.955729 10.5599 0.8125 10.4297 0.695312C10.3125 0.565104 10.1693 0.5 10 0.5C9.83073 0.5 9.68099 0.565104 9.55078 0.695312C9.43359 0.8125 9.375 0.955729 9.375 1.125V2.375H5.625V1.125C5.625 0.955729 5.5599 0.8125 5.42969 0.695312C5.3125 0.565104 5.16927 0.5 5 0.5C4.83073 0.5 4.68099 0.565104 4.55078 0.695312C4.43359 0.8125 4.375 0.955729 4.375 1.125V2.375H1.66016C1.20443 2.375 0.813802 2.53776 0.488281 2.86328C0.16276 3.1888 0 3.57943 0 4.03516V18.8398C0 19.2956 0.16276 19.6862 0.488281 20.0117C0.813802 20.3372 1.20443 20.5 1.66016 20.5H18.3398C18.7956 20.5 19.1862 20.3372 19.5117 20.0117C19.8372 19.6862 20 19.2956 20 18.8398V4.03516C20 3.57943 19.8372 3.1888 19.5117 2.86328C19.1862 2.53776 18.7956 2.375 18.3398 2.375ZM18.75 18.8398C18.75 18.944 18.7044 19.0352 18.6133 19.1133C18.5352 19.2044 18.444 19.25 18.3398 19.25H1.66016C1.55599 19.25 1.45833 19.2044 1.36719 19.1133C1.28906 19.0352 1.25 18.944 1.25 18.8398V4.03516C1.25 3.93099 1.28906 3.83984 1.36719 3.76172C1.45833 3.67057 1.55599 3.625 1.66016 3.625H4.375V4.875C4.375 5.04427 4.43359 5.19401 4.55078 5.32422C4.68099 5.44141 4.83073 5.5 5 5.5C5.16927 5.5 5.3125 5.44141 5.42969 5.32422C5.5599 5.19401 5.625 5.04427 5.625 4.875V3.625H9.375V4.875C9.375 5.04427 9.43359 5.19401 9.55078 5.32422C9.68099 5.44141 9.83073 5.5 10 5.5C10.1693 5.5 10.3125 5.44141 10.4297 5.32422C10.5599 5.19401 10.625 5.04427 10.625 4.875V3.625H14.375V4.875C14.375 5.04427 14.4336 5.19401 14.5508 5.32422C14.681 5.44141 14.8307 5.5 15 5.5C15.1693 5.5 15.3125 5.44141 15.4297 5.32422C15.5599 5.19401 15.625 5.04427 15.625 4.875V3.625H18.3398C18.444 3.625 18.5352 3.67057 18.6133 3.76172C18.7044 3.83984 18.75 3.93099 18.75 4.03516V18.8398ZM4.375 8H6.875V9.875H4.375V8ZM4.375 11.125H6.875V13H4.375V11.125ZM4.375 14.25H6.875V16.125H4.375V14.25ZM8.75 14.25H11.25V16.125H8.75V14.25ZM8.75 11.125H11.25V13H8.75V11.125ZM8.75 8H11.25V9.875H8.75V8ZM13.125 14.25H15.625V16.125H13.125V14.25ZM13.125 11.125H15.625V13H13.125V11.125ZM13.125 8H15.625V9.875H13.125V8Z" fill="#BDBFC4"/>
</svg>
