<svg width="20" height="21" viewBox="0 0 20 21" fill="none" xmlns="http://www.w3.org/2000/svg">
<path d="M10 20.5C8.61979 20.5 7.32422 20.2331 6.11328 19.6992C4.90234 19.1784 3.84115 18.4688 2.92969 17.5703C2.03125 16.6589 1.3151 15.5977 0.78125 14.3867C0.260417 13.1758 0 11.8802 0 10.5C0 9.11979 0.260417 7.82422 0.78125 6.61328C1.3151 5.40234 2.03125 4.34766 2.92969 3.44922C3.84115 2.53776 4.90234 1.82161 6.11328 1.30078C7.32422 0.766927 8.61979 0.5 10 0.5C11.3802 0.5 12.6758 0.766927 13.8867 1.30078C15.0977 1.82161 16.1523 2.53776 17.0508 3.44922C17.9622 4.34766 18.6784 5.40234 19.1992 6.61328C19.7331 7.82422 20 9.11979 20 10.5C20 11.8802 19.7331 13.1758 19.1992 14.3867C18.6784 15.5977 17.9622 16.6589 17.0508 17.5703C16.1523 18.4688 15.0977 19.1784 13.8867 19.6992C12.6758 20.2331 11.3802 20.5 10 20.5ZM10 1.26172C8.72396 1.26172 7.52604 1.50911 6.40625 2.00391C5.28646 2.48568 4.3099 3.14323 3.47656 3.97656C2.64323 4.8099 1.97917 5.78646 1.48438 6.90625C1.0026 8.02604 0.761719 9.22396 0.761719 10.5C0.761719 11.776 1.0026 12.974 1.48438 14.0938C1.97917 15.2135 2.64323 16.1901 3.47656 17.0234C4.3099 17.8568 5.28646 18.5143 6.40625 18.9961C7.52604 19.4909 8.72396 19.7383 10 19.7383C11.276 19.7383 12.474 19.4909 13.5938 18.9961C14.7135 18.5143 15.6901 17.8568 16.5234 17.0234C17.3568 16.1901 18.0143 15.2135 18.4961 14.0938C18.9909 12.974 19.2383 11.776 19.2383 10.5C19.2383 9.22396 18.9909 8.02604 18.4961 6.90625C18.0143 5.78646 17.3568 4.8099 16.5234 3.97656C15.6901 3.14323 14.7135 2.48568 13.5938 2.00391C12.474 1.50911 11.276 1.26172 10 1.26172ZM12.3242 6.33984C12.6367 6.33984 12.9036 6.45052 13.125 6.67188C13.3594 6.89323 13.4766 7.16667 13.4766 7.49219C13.4766 7.80469 13.3594 8.07812 13.125 8.3125C12.9036 8.53385 12.6367 8.64453 12.3242 8.64453C11.9987 8.64453 11.7253 8.53385 11.5039 8.3125C11.2826 8.07812 11.1719 7.80469 11.1719 7.49219C11.1719 7.16667 11.2826 6.89323 11.5039 6.67188C11.7253 6.45052 11.9987 6.33984 12.3242 6.33984ZM7.5 6.33984C7.82552 6.33984 8.09896 6.45052 8.32031 6.67188C8.55469 6.89323 8.67188 7.16667 8.67188 7.49219C8.67188 7.80469 8.55469 8.07812 8.32031 8.3125C8.09896 8.53385 7.82552 8.64453 7.5 8.64453C7.1875 8.64453 6.91406 8.53385 6.67969 8.3125C6.45833 8.07812 6.34766 7.80469 6.34766 7.49219C6.34766 7.16667 6.45833 6.89323 6.67969 6.67188C6.91406 6.45052 7.1875 6.33984 7.5 6.33984ZM14.9609 13.293C14.2839 13.9049 13.5156 14.3737 12.6562 14.6992C11.8099 15.0247 10.931 15.1875 10.0195 15.1875C9.09505 15.1875 8.20312 15.0247 7.34375 14.6992C6.4974 14.3607 5.73568 13.8854 5.05859 13.2734C4.94141 13.1693 4.8763 13.0391 4.86328 12.8828C4.86328 12.7135 4.91536 12.5703 5.01953 12.4531C5.1237 12.3359 5.25391 12.2773 5.41016 12.2773C5.57943 12.2643 5.72266 12.3099 5.83984 12.4141C6.41276 12.9349 7.05729 13.3385 7.77344 13.625C8.48958 13.8984 9.23828 14.0352 10.0195 14.0352C10.7878 14.0352 11.5299 13.8984 12.2461 13.625C12.9753 13.3385 13.6263 12.9414 14.1992 12.4336C14.3164 12.3294 14.4531 12.2839 14.6094 12.2969C14.7656 12.2969 14.8958 12.3555 15 12.4727C15.1172 12.5898 15.1693 12.7266 15.1562 12.8828C15.1432 13.0391 15.0781 13.1758 14.9609 13.293Z" fill="#6A6A6D"/>
</svg>
