<svg width="24" height="22" viewBox="0 0 24 22" fill="none" xmlns="http://www.w3.org/2000/svg">
<path opacity="0.684524" d="M12 4.25C12.1094 4.25 12.1953 4.28906 12.2578 4.36719C12.3359 4.42969 12.375 4.51563 12.375 4.625C12.375 4.73437 12.3359 4.82812 12.2578 4.90625C12.1953 4.96875 12.1094 5 12 5C11 5 10.0469 5.125 9.14062 5.375C8.23438 5.60938 7.4375 5.9375 6.75 6.35938C6.0625 6.76563 5.51562 7.24219 5.10938 7.78906C4.70312 8.33594 4.5 8.90625 4.5 9.5C4.5 9.60938 4.46094 9.70312 4.38281 9.78125C4.32031 9.84375 4.23438 9.875 4.125 9.875C4.01562 9.875 3.92188 9.84375 3.84375 9.78125C3.78125 9.70312 3.75 9.60938 3.75 9.5C3.75 8.78125 3.96875 8.10938 4.40625 7.48438C4.84375 6.84375 5.4375 6.28906 6.1875 5.82031C6.95312 5.33594 7.82812 4.95312 8.8125 4.67188C9.8125 4.39062 10.875 4.25 12 4.25ZM12 0.5C10.3438 0.5 8.78125 0.734375 7.3125 1.20312C5.85938 1.67188 4.58594 2.32031 3.49219 3.14844C2.41406 3.96094 1.5625 4.91406 0.9375 6.00781C0.3125 7.08594 0 8.25 0 9.5C0 10.2812 0.125 11.0312 0.375 11.75C0.625 12.4688 0.976562 13.1484 1.42969 13.7891C1.89844 14.4141 2.45312 15 3.09375 15.5469C3.75 16.0781 4.46875 16.5469 5.25 16.9531C5.25 16.9531 5.25 16.9609 5.25 16.9766C5.25 16.9766 5.25 16.9844 5.25 17C5.25 17.6719 5.0625 18.3359 4.6875 18.9922C4.3125 19.6484 4.01562 20.1719 3.79688 20.5625C3.78125 20.5938 3.76562 20.6328 3.75 20.6797C3.75 20.7266 3.75 20.7734 3.75 20.8203C3.75 21.0078 3.8125 21.1641 3.9375 21.2891C4.07812 21.4297 4.24219 21.5 4.42969 21.5C4.46094 21.5 4.5 21.4922 4.54688 21.4766C4.59375 21.4766 4.61719 21.4844 4.61719 21.5C5.21094 21.3906 5.78125 21.1953 6.32812 20.9141C6.875 20.6328 7.375 20.3281 7.82812 20C8.29688 19.6719 8.6875 19.3516 9 19.0391C9.32812 18.7266 9.55469 18.4922 9.67969 18.3359C10.0547 18.3828 10.4375 18.4219 10.8281 18.4531C11.2188 18.4844 11.6094 18.5 12 18.5C13.6562 18.5 15.2109 18.2656 16.6641 17.7969C18.1328 17.3281 19.4062 16.6875 20.4844 15.875C21.5781 15.0469 22.4375 14.0938 23.0625 13.0156C23.6875 11.9219 24 10.75 24 9.5C24 8.25 23.6875 7.08594 23.0625 6.00781C22.4375 4.91406 21.5781 3.96094 20.4844 3.14844C19.4062 2.32031 18.1328 1.67188 16.6641 1.20312C15.2109 0.734375 13.6562 0.5 12 0.5ZM12 17C11.6562 17 11.3047 16.9922 10.9453 16.9766C10.6016 16.9453 10.2578 16.8984 9.91406 16.8359C9.86719 16.8359 9.82812 16.8359 9.79688 16.8359C9.76562 16.8359 9.72656 16.8359 9.67969 16.8359C9.46094 16.8359 9.25 16.8828 9.04688 16.9766C8.84375 17.0703 8.67188 17.2031 8.53125 17.375C8.375 17.5781 8.08594 17.8672 7.66406 18.2422C7.24219 18.6172 6.75781 18.9609 6.21094 19.2734C6.35156 18.9453 6.46875 18.5938 6.5625 18.2188C6.67188 17.8438 6.73438 17.4609 6.75 17.0703C6.75 17.0547 6.75 17.0391 6.75 17.0234C6.75 16.9922 6.75 16.9688 6.75 16.9531C6.75 16.6719 6.67188 16.4141 6.51562 16.1797C6.375 15.9297 6.17969 15.7422 5.92969 15.6172C5.24219 15.2578 4.625 14.8516 4.07812 14.3984C3.53125 13.9453 3.0625 13.4609 2.67188 12.9453C2.29688 12.4141 2.00781 11.8594 1.80469 11.2812C1.60156 10.6875 1.5 10.0938 1.5 9.5C1.5 8.46875 1.77344 7.5 2.32031 6.59375C2.88281 5.67187 3.63281 4.875 4.57031 4.20312C5.52344 3.51562 6.63281 2.97656 7.89844 2.58594C9.17969 2.19531 10.5469 2 12 2C13.4531 2 14.8125 2.19531 16.0781 2.58594C17.3594 2.97656 18.4688 3.51562 19.4062 4.20312C20.3594 4.875 21.1094 5.67187 21.6562 6.59375C22.2188 7.5 22.5 8.46875 22.5 9.5C22.5 10.5312 22.2188 11.5078 21.6562 12.4297C21.1094 13.3359 20.3594 14.1328 19.4062 14.8203C18.4688 15.4922 17.3594 16.0234 16.0781 16.4141C14.8125 16.8047 13.4531 17 12 17Z" fill="white"/>
</svg>
