<svg width="33" height="30" viewBox="0 0 33 30" fill="none" xmlns="http://www.w3.org/2000/svg">
<g opacity="0.714286">
<path d="M10.4712 14.1667H1.90385C0.856731 14.1667 0 13.3013 0 12.2436V3.58973C0 2.53204 0.856731 1.66666 1.90385 1.66666H10.4712C11.5183 1.66666 12.375 2.53204 12.375 3.58973V12.2436C12.375 13.3013 11.5183 14.1667 10.4712 14.1667Z" fill="white"/>
<path d="M32.4181 9.24401L26.1412 15.2848C25.3795 16.0162 24.11 16.0162 23.3483 15.2848L17.0713 9.25756C16.3096 8.52616 16.3096 7.30717 17.0713 6.57578L23.3483 0.548546C24.11 -0.182849 25.3795 -0.182849 26.1412 0.548546L32.4181 6.57578C33.194 7.30717 33.194 8.51262 32.4181 9.24401Z" fill="white"/>
<path d="M10.4712 30H1.90385C0.856731 30 0 29.1346 0 28.0769V19.4231C0 18.3654 0.856731 17.5 1.90385 17.5H10.4712C11.5183 17.5 12.375 18.3654 12.375 19.4231V28.0769C12.375 29.1346 11.5183 30 10.4712 30Z" fill="white"/>
<path d="M28.6211 30H20.0537C19.0066 30 18.1499 29.1346 18.1499 28.0769V19.4231C18.1499 18.3654 19.0066 17.5 20.0537 17.5H28.6211C29.6682 17.5 30.5249 18.3654 30.5249 19.4231V28.0769C30.5249 29.1346 29.6682 30 28.6211 30Z" fill="white"/>
</g>
</svg>
