<svg width="24" height="6" viewBox="0 0 24 6" fill="none" xmlns="http://www.w3.org/2000/svg">
<path d="M14.9062 3C14.9062 3.79688 14.6172 4.48438 14.0391 5.0625C13.4766 5.625 12.7969 5.90625 12 5.90625C11.2031 5.90625 10.5156 5.625 9.9375 5.0625C9.375 4.48438 9.09375 3.79688 9.09375 3C9.09375 2.20312 9.375 1.52344 9.9375 0.960938C10.5156 0.382812 11.2031 0.09375 12 0.09375C12.7969 0.09375 13.4766 0.382812 14.0391 0.960938C14.6172 1.52344 14.9062 2.20312 14.9062 3ZM12 4.71094C12.4688 4.71094 12.8672 4.54688 13.1953 4.21875C13.5391 3.875 13.7109 3.46875 13.7109 3C13.7109 2.53125 13.5391 2.13281 13.1953 1.80469C12.8672 1.46094 12.4688 1.28906 12 1.28906C11.5312 1.28906 11.125 1.46094 10.7812 1.80469C10.4531 2.13281 10.2891 2.53125 10.2891 3C10.2891 3.46875 10.4531 3.875 10.7812 4.21875C11.125 4.54688 11.5312 4.71094 12 4.71094ZM2.90625 0.09375C3.71875 0.09375 4.40625 0.382812 4.96875 0.960938C5.54688 1.52344 5.83594 2.20312 5.83594 3C5.83594 3.79688 5.54688 4.48438 4.96875 5.0625C4.40625 5.625 3.71875 5.90625 2.90625 5.90625C2.10938 5.90625 1.42188 5.625 0.84375 5.0625C0.28125 4.48438 0 3.79688 0 3C0 2.20312 0.28125 1.52344 0.84375 0.960938C1.42188 0.382812 2.10938 0.09375 2.90625 0.09375ZM2.90625 4.71094C3.39062 4.71094 3.79688 4.54688 4.125 4.21875C4.45312 3.875 4.61719 3.46875 4.61719 3C4.61719 2.53125 4.45312 2.13281 4.125 1.80469C3.79688 1.46094 3.39062 1.28906 2.90625 1.28906C2.4375 1.28906 2.03125 1.46094 1.6875 1.80469C1.35938 2.13281 1.19531 2.53125 1.19531 3C1.19531 3.46875 1.35938 3.875 1.6875 4.21875C2.03125 4.54688 2.4375 4.71094 2.90625 4.71094ZM21.0938 0.09375C21.8906 0.09375 22.5703 0.382812 23.1328 0.960938C23.7109 1.52344 24 2.20312 24 3C24 3.79688 23.7109 4.48438 23.1328 5.0625C22.5703 5.625 21.8906 5.90625 21.0938 5.90625C20.2812 5.90625 19.5859 5.625 19.0078 5.0625C18.4453 4.48438 18.1641 3.79688 18.1641 3C18.1641 2.20312 18.4453 1.52344 19.0078 0.960938C19.5859 0.382812 20.2812 0.09375 21.0938 0.09375ZM21.0938 4.71094C21.5625 4.71094 21.9609 4.54688 22.2891 4.21875C22.6328 3.875 22.8047 3.46875 22.8047 3C22.8047 2.53125 22.6328 2.13281 22.2891 1.80469C21.9609 1.46094 21.5625 1.28906 21.0938 1.28906C20.6094 1.28906 20.2031 1.46094 19.875 1.80469C19.5469 2.13281 19.3828 2.53125 19.3828 3C19.3828 3.46875 19.5469 3.875 19.875 4.21875C20.2031 4.54688 20.6094 4.71094 21.0938 4.71094Z" fill="#AFB1B6"/>
</svg>
