<svg width="24" height="25" viewBox="0 0 24 25" fill="none" xmlns="http://www.w3.org/2000/svg">
<path d="M12.2143 23.1429C12.2143 23.2634 12.1205 23.3571 12 23.3571C10.7009 23.3571 9.64286 22.2991 9.64286 21C9.64286 20.8795 9.73661 20.7857 9.85714 20.7857C9.97768 20.7857 10.0714 20.8795 10.0714 21C10.0714 22.058 10.942 22.9286 12 22.9286C12.1205 22.9286 12.2143 23.0223 12.2143 23.1429ZM3.29464 19.2857C5.69196 16.5804 6.85714 12.9107 6.85714 8.14286C6.85714 6.41518 8.49107 3.85714 12 3.85714C15.5089 3.85714 17.1429 6.41518 17.1429 8.14286C17.1429 12.9107 18.308 16.5804 20.7054 19.2857H3.29464ZM23.1429 19.2857C21.1607 17.6116 18.8571 14.6116 18.8571 8.14286C18.8571 5.57143 16.7277 2.75893 13.1786 2.23661C13.2455 2.07589 13.2857 1.90178 13.2857 1.71428C13.2857 1.00446 12.7098 0.42857 12 0.42857C11.2902 0.42857 10.7143 1.00446 10.7143 1.71428C10.7143 1.90178 10.7545 2.07589 10.8214 2.23661C7.27232 2.75893 5.14286 5.57143 5.14286 8.14286C5.14286 14.6116 2.83929 17.6116 0.857143 19.2857C0.857143 20.2232 1.63393 21 2.57143 21H8.57143C8.57143 22.8884 10.1116 24.4286 12 24.4286C13.8884 24.4286 15.4286 22.8884 15.4286 21H21.4286C22.3661 21 23.1429 20.2232 23.1429 19.2857Z" fill="#B1B3BD"/>
</svg>
