<svg width="18" height="19" viewBox="0 0 18 19" fill="none" xmlns="http://www.w3.org/2000/svg">
<path d="M8.54297 10.6035C7.86328 10.6035 7.22461 10.4746 6.62695 10.2168C6.0293 9.94727 5.50195 9.58984 5.04492 9.14453C4.59961 8.69922 4.24805 8.17773 3.99023 7.58008C3.73242 6.9707 3.60352 6.32617 3.60352 5.64648C3.60352 4.9668 3.73242 4.32812 3.99023 3.73047C4.24805 3.12109 4.59961 2.59375 5.04492 2.14844C5.50195 1.70312 6.0293 1.35156 6.62695 1.09375C7.22461 0.835938 7.86328 0.707031 8.54297 0.707031C9.23438 0.707031 9.87891 0.835938 10.4766 1.09375C11.0742 1.35156 11.5957 1.70312 12.041 2.14844C12.498 2.59375 12.8555 3.12109 13.1133 3.73047C13.3711 4.32812 13.5 4.9668 13.5 5.64648C13.5 6.32617 13.3711 6.9707 13.1133 7.58008C12.8555 8.17773 12.498 8.69922 12.041 9.14453C11.5957 9.58984 11.0742 9.94727 10.4766 10.2168C9.87891 10.4746 9.23438 10.6035 8.54297 10.6035ZM8.54297 1.60352C7.99219 1.60352 7.4707 1.70898 6.97852 1.91992C6.48633 2.13086 6.05273 2.42383 5.67773 2.79883C5.31445 3.16211 5.02734 3.58984 4.81641 4.08203C4.60547 4.57422 4.5 5.0957 4.5 5.64648C4.5 6.20898 4.60547 6.73633 4.81641 7.22852C5.02734 7.7207 5.31445 8.14844 5.67773 8.51172C6.05273 8.875 6.48633 9.16797 6.97852 9.39062C7.4707 9.60156 7.99219 9.70703 8.54297 9.70703C9.10547 9.70703 9.63281 9.60156 10.125 9.39062C10.6172 9.16797 11.0449 8.875 11.4082 8.51172C11.7832 8.14844 12.0762 7.7207 12.2871 7.22852C12.498 6.73633 12.6035 6.20898 12.6035 5.64648C12.6035 5.0957 12.498 4.57422 12.2871 4.08203C12.0762 3.58984 11.7832 3.16211 11.4082 2.79883C11.0449 2.42383 10.6172 2.13086 10.125 1.91992C9.63281 1.70898 9.10547 1.60352 8.54297 1.60352ZM15.75 18.707H1.35352C0.978516 18.707 0.65625 18.5723 0.386719 18.3027C0.128906 18.0449 0 17.7285 0 17.3535C0 17.3184 0.046875 16.9961 0.140625 16.3867C0.234375 15.7773 0.556641 15.1094 1.10742 14.3828C1.42383 13.9609 1.79883 13.5859 2.23242 13.2578C2.66602 12.918 3.15234 12.625 3.69141 12.3789C4.34766 12.0859 5.08008 11.8691 5.88867 11.7285C6.70898 11.5762 7.59375 11.5 8.54297 11.5C9.50391 11.5 10.3887 11.5762 11.1973 11.7285C12.0176 11.8691 12.7559 12.0859 13.4121 12.3789C13.9512 12.625 14.4375 12.918 14.8711 13.2578C15.3047 13.5859 15.6797 13.9609 15.9961 14.3828C16.5469 15.1094 16.8691 15.7773 16.9629 16.3867C17.0566 16.9961 17.1035 17.3184 17.1035 17.3535C17.1035 17.7285 16.9688 18.0449 16.6992 18.3027C16.4414 18.5723 16.125 18.707 15.75 18.707ZM8.54297 12.3965C7.75781 12.3965 7.02539 12.4492 6.3457 12.5547C5.67773 12.6602 5.05664 12.8184 4.48242 13.0293C3.91992 13.2402 3.41602 13.5039 2.9707 13.8203C2.53711 14.125 2.16211 14.4766 1.8457 14.875C1.38867 15.4844 1.11328 16.0469 1.01953 16.5625C0.9375 17.0781 0.896484 17.3418 0.896484 17.3535C0.896484 17.4707 0.9375 17.5703 1.01953 17.6523C1.11328 17.7461 1.22461 17.793 1.35352 17.793H15.75C15.8789 17.793 15.9844 17.7461 16.0664 17.6523C16.1602 17.5703 16.207 17.4707 16.207 17.3535C16.207 17.3418 16.1602 17.0781 16.0664 16.5625C15.9844 16.0469 15.709 15.4844 15.2402 14.875C14.9355 14.4766 14.5605 14.125 14.1152 13.8203C13.6699 13.5039 13.166 13.2402 12.6035 13.0293C12.041 12.8184 11.4199 12.6602 10.7402 12.5547C10.0605 12.4492 9.32812 12.3965 8.54297 12.3965Z" fill="#9FA1A3"/>
</svg>
