<svg width="22" height="22" viewBox="0 0 22 22" fill="none" xmlns="http://www.w3.org/2000/svg">
<path opacity="0.541667" d="M11 0.0078125C12.5 0.0078125 13.9219 0.296875 15.2656 0.875C16.625 1.45312 17.7969 2.23438 18.7812 3.21875C19.7656 4.20312 20.5469 5.375 21.125 6.73438C21.7031 8.07812 21.9922 9.5 21.9922 11C21.9922 12.5 21.7031 13.9297 21.125 15.2891C20.5469 16.6328 19.7656 17.7969 18.7812 18.7812C17.7969 19.7656 16.6328 20.5469 15.2891 21.125C13.9297 21.7031 12.5 21.9922 11 21.9922C9.5 21.9922 8.07812 21.7031 6.73438 21.125C5.375 20.5469 4.20312 19.7656 3.21875 18.7812C2.23438 17.7969 1.45312 16.6328 0.875 15.2891C0.296875 13.9297 0.0078125 12.5 0.0078125 11C0.0078125 9.5 0.296875 8.07812 0.875 6.73438C1.45312 5.375 2.23438 4.20312 3.21875 3.21875C4.20312 2.23438 5.36719 1.45312 6.71094 0.875C8.07031 0.296875 9.5 0.0078125 11 0.0078125ZM11 2C9.78125 2 8.61719 2.23438 7.50781 2.70312C6.39844 3.1875 5.4375 3.82812 4.625 4.625C3.82812 5.4375 3.1875 6.39844 2.70312 7.50781C2.23438 8.61719 2 9.78125 2 11C2 12.2188 2.23438 13.3828 2.70312 14.4922C3.1875 15.6016 3.82812 16.5625 4.625 17.375C5.4375 18.1719 6.39844 18.8047 7.50781 19.2734C8.61719 19.7578 9.78125 20 11 20C12.2188 20 13.3828 19.7656 14.4922 19.2969C15.6016 18.8125 16.5625 18.1719 17.375 17.375C18.1719 16.5625 18.8047 15.6016 19.2734 14.4922C19.7578 13.3828 20 12.2188 20 11C20 9.78125 19.7656 8.61719 19.2969 7.50781C18.8125 6.39844 18.1719 5.4375 17.375 4.625C16.5625 3.82812 15.6016 3.19531 14.4922 2.72656C13.3828 2.24219 12.2188 2 11 2ZM11 6.00781C11.2812 6.00781 11.5156 6.10156 11.7031 6.28906C11.9062 6.49219 12.0078 6.72656 12.0078 6.99219V9.99219H15.0078C15.2734 9.99219 15.5078 10.0938 15.7109 10.2969C15.8984 10.4844 15.9922 10.7188 15.9922 11C15.9922 11.2812 15.8984 11.5156 15.7109 11.7031C15.5078 11.9062 15.2734 12.0078 15.0078 12.0078H12.0078V15.0078C12.0078 15.2734 11.9062 15.5078 11.7031 15.7109C11.5156 15.8984 11.2812 15.9922 11 15.9922C10.7188 15.9922 10.4844 15.8984 10.2969 15.7109C10.0938 15.5078 9.99219 15.2734 9.99219 15.0078V12.0078H6.99219C6.72656 12.0078 6.49219 11.9062 6.28906 11.7031C6.10156 11.5156 6.00781 11.2812 6.00781 11C6.00781 10.7188 6.10156 10.4844 6.28906 10.2969C6.49219 10.0938 6.72656 9.99219 6.99219 9.99219H9.99219V6.99219C9.99219 6.72656 10.0938 6.49219 10.2969 6.28906C10.4844 6.10156 10.7188 6.00781 11 6.00781Z" fill="white"/>
</svg>
