<svg width="16" height="16" viewBox="0 0 16 16" fill="none" xmlns="http://www.w3.org/2000/svg">
<path d="M8 0.744141C8.21094 0.744141 8.38672 0.820313 8.52734 0.972656C8.67969 1.11328 8.75586 1.28906 8.75586 1.5V7.49414H14.75C14.9609 7.49414 15.1367 7.57031 15.2773 7.72266C15.4297 7.86328 15.5059 8.03906 15.5059 8.25C15.5059 8.46094 15.4297 8.63672 15.2773 8.77734C15.1367 8.92969 14.9609 9.00586 14.75 9.00586H8.75586V15C8.75586 15.2109 8.67969 15.3867 8.52734 15.5273C8.38672 15.6797 8.21094 15.7559 8 15.7559C7.78906 15.7559 7.61328 15.6797 7.47266 15.5273C7.32031 15.3867 7.24414 15.2109 7.24414 15V9.00586H1.25C1.03906 9.00586 0.863281 8.92969 0.722656 8.77734C0.570312 8.63672 0.494141 8.46094 0.494141 8.25C0.494141 8.03906 0.570312 7.86328 0.722656 7.72266C0.863281 7.57031 1.03906 7.49414 1.25 7.49414H7.24414V1.5C7.24414 1.28906 7.32031 1.11328 7.47266 0.972656C7.61328 0.820313 7.78906 0.744141 8 0.744141Z" fill="#AFB1B6"/>
</svg>
