<svg width="18" height="14" viewBox="0 0 18 14" fill="none" xmlns="http://www.w3.org/2000/svg">
<path d="M16.5 2.00781H1.5C1.35677 2.00781 1.23307 1.96224 1.12891 1.87109C1.03776 1.76693 0.992188 1.64323 0.992188 1.5C0.992188 1.35677 1.03776 1.23958 1.12891 1.14844C1.23307 1.04427 1.35677 0.992188 1.5 0.992188H16.5C16.6432 0.992188 16.7604 1.04427 16.8516 1.14844C16.9557 1.23958 17.0078 1.35677 17.0078 1.5C17.0078 1.64323 16.9557 1.76693 16.8516 1.87109C16.7604 1.96224 16.6432 2.00781 16.5 2.00781ZM16.5 4.99609H5.50391C5.36068 4.99609 5.23698 4.95052 5.13281 4.85938C5.04167 4.75521 4.99609 4.63802 4.99609 4.50781C4.99609 4.36458 5.04167 4.2474 5.13281 4.15625C5.23698 4.05208 5.36068 4 5.50391 4H16.5C16.6432 4 16.7604 4.05208 16.8516 4.15625C16.9557 4.2474 17.0078 4.36458 17.0078 4.50781C17.0078 4.63802 16.9557 4.75521 16.8516 4.85938C16.7604 4.95052 16.6432 4.99609 16.5 4.99609ZM16.5 8.00391H1.5C1.35677 8.00391 1.23307 7.95833 1.12891 7.86719C1.03776 7.76302 0.992188 7.63932 0.992188 7.49609C0.992188 7.36589 1.03776 7.25521 1.12891 7.16406C1.23307 7.0599 1.35677 7.00781 1.5 7.00781H16.5C16.6432 7.00781 16.7604 7.0599 16.8516 7.16406C16.9557 7.25521 17.0078 7.36589 17.0078 7.49609C17.0078 7.63932 16.9557 7.76302 16.8516 7.86719C16.7604 7.95833 16.6432 8.00391 16.5 8.00391ZM16.5 10.9922H5.50391C5.36068 10.9922 5.23698 10.9466 5.13281 10.8555C5.04167 10.7513 4.99609 10.6341 4.99609 10.5039C4.99609 10.3607 5.04167 10.2435 5.13281 10.1523C5.23698 10.0482 5.36068 9.99609 5.50391 9.99609H16.5C16.6432 9.99609 16.7604 10.0482 16.8516 10.1523C16.9557 10.2435 17.0078 10.3607 17.0078 10.5039C17.0078 10.6341 16.9557 10.7513 16.8516 10.8555C16.7604 10.9466 16.6432 10.9922 16.5 10.9922ZM16.5 14H1.5C1.35677 14 1.23307 13.9544 1.12891 13.8633C1.03776 13.7591 0.992188 13.6354 0.992188 13.4922C0.992188 13.362 1.03776 13.2513 1.12891 13.1602C1.23307 13.056 1.35677 13.0039 1.5 13.0039H16.5C16.6432 13.0039 16.7604 13.056 16.8516 13.1602C16.9557 13.2513 17.0078 13.362 17.0078 13.4922C17.0078 13.6354 16.9557 13.7591 16.8516 13.8633C16.7604 13.9544 16.6432 14 16.5 14Z" fill="#6A6A6D"/>
</svg>
