<svg width="18" height="18" viewBox="0 0 18 18" fill="none" xmlns="http://www.w3.org/2000/svg">
<path d="M13.125 10.9688L12.9375 11.2969L18 16.4062L16.4062 18L11.3438 12.8906L11.0156 13.125C10.4531 13.4688 9.83594 13.75 9.16406 13.9688C8.50781 14.1875 7.82812 14.2969 7.125 14.2969C6.14062 14.2969 5.21094 14.1094 4.33594 13.7344C3.47656 13.3594 2.72656 12.8438 2.08594 12.1875C1.44531 11.5312 0.9375 10.7734 0.5625 9.91406C0.1875 9.03906 0 8.10938 0 7.125C0 6.14062 0.1875 5.21875 0.5625 4.35938C0.9375 3.48437 1.44531 2.72656 2.08594 2.08594C2.72656 1.44531 3.47656 0.9375 4.33594 0.5625C5.21094 0.1875 6.14062 0 7.125 0C8.10938 0 9.03125 0.1875 9.89062 0.5625C10.7656 0.9375 11.5234 1.44531 12.1641 2.08594C12.8047 2.72656 13.3125 3.48437 13.6875 4.35938C14.0625 5.21875 14.25 6.14062 14.25 7.125C14.25 7.82812 14.1484 8.50781 13.9453 9.16406C13.7578 9.80469 13.4844 10.4062 13.125 10.9688ZM11.1094 3.14062C10.5781 2.60938 9.96875 2.20312 9.28125 1.92188C8.59375 1.64062 7.875 1.5 7.125 1.5C6.375 1.5 5.65625 1.64062 4.96875 1.92188C4.29688 2.1875 3.6875 2.59375 3.14062 3.14062C2.60938 3.67187 2.20312 4.28125 1.92188 4.96875C1.64062 5.65625 1.5 6.375 1.5 7.125C1.5 7.875 1.63281 8.59375 1.89844 9.28125C2.17969 9.95312 2.59375 10.5625 3.14062 11.1094C3.67188 11.6406 4.28125 12.0469 4.96875 12.3281C5.65625 12.6094 6.375 12.75 7.125 12.75C7.875 12.75 8.58594 12.6172 9.25781 12.3516C9.94531 12.0703 10.5625 11.6562 11.1094 11.1094C11.6406 10.5781 12.0547 9.96875 12.3516 9.28125C12.6484 8.59375 12.7969 7.875 12.7969 7.125C12.7969 6.375 12.6484 5.66406 12.3516 4.99219C12.0703 4.30469 11.6562 3.6875 11.1094 3.14062Z" fill="#B1B3BD"/>
</svg>
