<svg width="18" height="15" viewBox="0 0 18 15" xmlns="http://www.w3.org/2000/svg" xmlns:xlink="http://www.w3.org/1999/xlink" fill="none" overflow="hidden"><path d="M14.2734 6.39062 7.3125 6.39062C6.98438 6.39062 6.78125 6.50781 6.70312 6.74219 6.64062 6.97656 6.60938 7.26562 6.60938 7.60938 6.60938 7.9375 6.64062 8.21875 6.70312 8.45312 6.78125 8.6875 6.98438 8.80469 7.3125 8.80469L14.2734 8.80469C14.6016 8.80469 14.8047 8.6875 14.8828 8.45312 14.9609 8.21875 15 7.9375 15 7.60938 15 7.26562 14.9609 6.97656 14.8828 6.74219 14.8047 6.50781 14.6016 6.39062 14.2734 6.39062ZM16.6875 12.3906 7.3125 12.3906C6.98438 12.3906 6.78125 12.5078 6.70312 12.7422 6.64062 12.9766 6.60938 13.2656 6.60938 13.6094 6.60938 13.9375 6.64062 14.2188 6.70312 14.4531 6.78125 14.6875 6.98438 14.8047 7.3125 14.8047L16.6875 14.8047C17.0156 14.8047 17.2109 14.6875 17.2734 14.4531 17.3516 14.2188 17.3906 13.9375 17.3906 13.6094 17.3906 13.2656 17.3516 12.9766 17.2734 12.7422 17.2109 12.5078 17.0156 12.3906 16.6875 12.3906ZM7.3125 2.80469 16.6875 2.80469C17.0156 2.80469 17.2109 2.6875 17.2734 2.45312 17.3516 2.21875 17.3906 1.9375 17.3906 1.60938 17.3906 1.26563 17.3516 0.976562 17.2734 0.742188 17.2109 0.507812 17.0156 0.390625 16.6875 0.390625L7.3125 0.390625C6.98438 0.390625 6.78125 0.507812 6.70312 0.742188 6.64062 0.976562 6.60938 1.26563 6.60938 1.60938 6.60938 1.9375 6.64062 2.21875 6.70312 2.45312 6.78125 2.6875 6.98438 2.80469 7.3125 2.80469ZM3.46875 6.39062 1.3125 6.39062C0.984375 6.39062 0.78125 6.50781 0.703125 6.74219 0.640625 6.97656 0.609375 7.26562 0.609375 7.60938 0.609375 7.9375 0.640625 8.21875 0.703125 8.45312 0.78125 8.6875 0.984375 8.80469 1.3125 8.80469L3.46875 8.80469C3.8125 8.80469 4.01562 8.6875 4.07812 8.45312 4.15625 8.21875 4.19531 7.9375 4.19531 7.60938 4.19531 7.26562 4.15625 6.97656 4.07812 6.74219 4.01562 6.50781 3.8125 6.39062 3.46875 6.39062ZM3.46875 12.3906 1.3125 12.3906C0.984375 12.3906 0.78125 12.5078 0.703125 12.7422 0.640625 12.9766 0.609375 13.2656 0.609375 13.6094 0.609375 13.9375 0.640625 14.2188 0.703125 14.4531 0.78125 14.6875 0.984375 14.8047 1.3125 14.8047L3.46875 14.8047C3.8125 14.8047 4.01562 14.6875 4.07812 14.4531 4.15625 14.2188 4.19531 13.9375 4.19531 13.6094 4.19531 13.2656 4.15625 12.9766 4.07812 12.7422 4.01562 12.5078 3.8125 12.3906 3.46875 12.3906ZM3.46875 0.390625 1.3125 0.390625C0.984375 0.390625 0.78125 0.507812 0.703125 0.742188 0.640625 0.976562 0.609375 1.26563 0.609375 1.60938 0.609375 1.9375 0.640625 2.21875 0.703125 2.45312 0.78125 2.6875 0.984375 2.80469 1.3125 2.80469L3.46875 2.80469C3.8125 2.80469 4.01562 2.6875 4.07812 2.45312 4.15625 2.21875 4.19531 1.9375 4.19531 1.60938 4.19531 1.26563 4.15625 0.976562 4.07812 0.742188 4.01562 0.507812 3.8125 0.390625 3.46875 0.390625Z" fill="#262626"/></svg>