<svg width="14" height="15" viewBox="0 0 14 15" fill="none" xmlns="http://www.w3.org/2000/svg">
<path d="M0 8.26C0.000350104 7.86231 0.158615 7.48103 0.44 7.2L7.195 0.44C7.47603 0.158615 7.85731 0.000350104 8.255 0L12.5 0C12.8978 0 13.2794 0.158035 13.5607 0.43934C13.842 0.720644 14 1.10218 14 1.5V5.745C13.9996 6.14269 13.8414 6.52397 13.56 6.805L6.805 13.56C6.66565 13.6998 6.50006 13.8108 6.31773 13.8865C6.1354 13.9622 5.93992 14.0012 5.7425 14.0012C5.54508 14.0012 5.3496 13.9622 5.16727 13.8865C4.98494 13.8108 4.81936 13.6998 4.68 13.56L0.44 9.32C0.158615 9.03896 0.000350104 8.65769 0 8.26V8.26ZM13 1.5C13 1.36739 12.9473 1.24021 12.8536 1.14645C12.7598 1.05268 12.6326 1 12.5 1L8.255 1C8.18885 1.00027 8.1234 1.01367 8.06247 1.03942C8.00153 1.06517 7.94631 1.10276 7.9 1.15L1.145 7.905C1.05187 7.99868 0.999603 8.12541 0.999603 8.2575C0.999603 8.38959 1.05187 8.51632 1.145 8.61L5.39 12.855C5.48368 12.9481 5.61041 13.0004 5.7425 13.0004C5.87459 13.0004 6.00132 12.9481 6.095 12.855L12.85 6.1C12.8972 6.05369 12.9348 5.99847 12.9606 5.93753C12.9863 5.8766 12.9997 5.81115 13 5.745V1.5Z" fill="#919191"/>
<path d="M8 4C8 3.60444 8.1173 3.21776 8.33706 2.88886C8.55682 2.55996 8.86918 2.30362 9.23463 2.15224C9.60008 2.00087 10.0022 1.96126 10.3902 2.03843C10.7781 2.1156 11.1345 2.30608 11.4142 2.58579C11.6939 2.86549 11.8844 3.22186 11.9616 3.60982C12.0387 3.99778 11.9991 4.39992 11.8478 4.76537C11.6964 5.13082 11.44 5.44318 11.1111 5.66294C10.7822 5.8827 10.3956 6 10 6C9.46957 6 8.96086 5.78929 8.58579 5.41421C8.21071 5.03914 8 4.53043 8 4ZM11 4C11 3.80222 10.9414 3.60888 10.8315 3.44443C10.7216 3.27998 10.5654 3.15181 10.3827 3.07612C10.2 3.00043 9.99889 2.98063 9.80491 3.01922C9.61093 3.0578 9.43274 3.15304 9.29289 3.29289C9.15304 3.43275 9.0578 3.61093 9.01921 3.80491C8.98063 3.99889 9.00043 4.19996 9.07612 4.38268C9.15181 4.56541 9.27998 4.72159 9.44443 4.83147C9.60888 4.94135 9.80222 5 10 5C10.2652 5 10.5196 4.89464 10.7071 4.70711C10.8946 4.51957 11 4.26522 11 4V4Z" fill="#919191"/>
</svg>
