<svg width="20" height="20" viewBox="0 0 20 20" fill="none" xmlns="http://www.w3.org/2000/svg">
<path d="M14.6094 12.1758C14.6094 12.5924 14.6745 12.8919 14.8047 13.0742C14.9349 13.2565 15.1562 13.3477 15.4688 13.3477C16.1719 13.3477 16.7253 12.931 17.1289 12.0977C17.5456 11.2513 17.7539 10.0924 17.7539 8.62109C17.7539 7.48828 17.5586 6.50521 17.168 5.67188C16.7904 4.83854 16.263 4.14844 15.5859 3.60156C14.9219 3.04167 14.1406 2.625 13.2422 2.35156C12.3438 2.07812 11.3802 1.94141 10.3516 1.94141C9.29688 1.94141 8.28125 2.11719 7.30469 2.46875C6.34115 2.82031 5.48828 3.34115 4.74609 4.03125C4.00391 4.72135 3.41146 5.58073 2.96875 6.60938C2.52604 7.625 2.30469 8.79688 2.30469 10.125C2.30469 11.4141 2.50651 12.5469 2.91016 13.5234C3.3138 14.5 3.88672 15.3268 4.62891 16.0039C5.37109 16.668 6.26302 17.1693 7.30469 17.5078C8.35938 17.8594 9.53125 18.0352 10.8203 18.0352C11.6927 18.0352 12.474 17.9766 13.1641 17.8594C13.8542 17.7422 14.6484 17.5339 15.5469 17.2344L15.9375 18.8359C15.0391 19.1354 14.1406 19.3307 13.2422 19.4219C12.3438 19.526 11.5234 19.5781 10.7812 19.5781C9.10156 19.5781 7.61068 19.3568 6.30859 18.9141C5.01953 18.4714 3.93229 17.8333 3.04688 17C2.17448 16.1797 1.51042 15.1901 1.05469 14.0312C0.611979 12.8594 0.390625 11.5573 0.390625 10.125C0.390625 8.67969 0.638021 7.36458 1.13281 6.17969C1.64062 4.98177 2.33724 3.95964 3.22266 3.11328C4.10807 2.25391 5.16276 1.58984 6.38672 1.12109C7.61068 0.652344 8.94531 0.417969 10.3906 0.417969C11.888 0.417969 13.2096 0.626302 14.3555 1.04297C15.5143 1.45964 16.4779 2.03255 17.2461 2.76172C18.0273 3.49089 18.6133 4.34375 19.0039 5.32031C19.3945 6.28385 19.5898 7.31901 19.5898 8.42578C19.5898 9.36328 19.5117 10.2357 19.3555 11.043C19.1992 11.8503 18.9323 12.5469 18.5547 13.1328C18.1771 13.7188 17.6758 14.181 17.0508 14.5195C16.4258 14.8581 15.651 15.0273 14.7266 15.0273C13.8802 15.0273 13.1966 14.8581 12.6758 14.5195C12.168 14.168 11.875 13.6146 11.7969 12.8594C11.5885 13.6927 11.2044 14.2656 10.6445 14.5781C10.0977 14.8776 9.43359 15.0273 8.65234 15.0273C8.13151 15.0273 7.63672 14.9297 7.16797 14.7344C6.71224 14.526 6.30859 14.2201 5.95703 13.8164C5.60547 13.4128 5.32552 12.9115 5.11719 12.3125C4.90885 11.7005 4.80469 10.9909 4.80469 10.1836C4.80469 9.36328 4.89583 8.6276 5.07812 7.97656C5.27344 7.32552 5.55339 6.77214 5.91797 6.31641C6.28255 5.86068 6.73177 5.50911 7.26562 5.26172C7.79948 5.01432 8.41146 4.89062 9.10156 4.89062C9.84375 4.89062 10.4427 5.02734 10.8984 5.30078C11.3542 5.57422 11.6862 5.9388 11.8945 6.39453L12.5977 5.10547H14.6094V12.1758ZM11.6602 9.01172C11.6602 8.34766 11.4583 7.8724 11.0547 7.58594C10.6641 7.28646 10.2669 7.13672 9.86328 7.13672C9.42057 7.13672 8.9974 7.34505 8.59375 7.76172C8.1901 8.17839 7.98828 8.91406 7.98828 9.96875C7.98828 10.8021 8.15755 11.4466 8.49609 11.9023C8.83464 12.3581 9.29036 12.5859 9.86328 12.5859C10.2539 12.5859 10.651 12.4427 11.0547 12.1562C11.4583 11.8698 11.6602 11.3815 11.6602 10.6914V9.01172Z" fill="#6A6A6D"/>
</svg>
