<svg width="22" height="22" viewBox="0 0 22 22" fill="none" xmlns="http://www.w3.org/2000/svg">
<path opacity="0.684524" d="M11 0.0078125C12.5 0.0078125 13.9219 0.296875 15.2656 0.875C16.625 1.45312 17.7969 2.23438 18.7812 3.21875C19.7656 4.20312 20.5469 5.375 21.125 6.73438C21.7031 8.07812 21.9922 9.5 21.9922 11C21.9922 12.5 21.7031 13.9297 21.125 15.2891C20.5469 16.6328 19.7656 17.7969 18.7812 18.7812C17.7969 19.7656 16.6328 20.5469 15.2891 21.125C13.9297 21.7031 12.5 21.9922 11 21.9922C9.5 21.9922 8.07812 21.7031 6.73438 21.125C5.375 20.5469 4.20312 19.7656 3.21875 18.7812C2.23438 17.7969 1.45312 16.6328 0.875 15.2891C0.296875 13.9297 0.0078125 12.5 0.0078125 11C0.0078125 9.5 0.296875 8.07812 0.875 6.73438C1.45312 5.375 2.23438 4.20312 3.21875 3.21875C4.20312 2.23438 5.36719 1.45312 6.71094 0.875C8.07031 0.296875 9.5 0.0078125 11 0.0078125ZM11 2C9.78125 2 8.61719 2.23438 7.50781 2.70312C6.39844 3.1875 5.4375 3.82812 4.625 4.625C3.82812 5.4375 3.1875 6.39844 2.70312 7.50781C2.23438 8.61719 2 9.78125 2 11C2 12.2188 2.23438 13.3828 2.70312 14.4922C3.1875 15.6016 3.82812 16.5625 4.625 17.375C5.4375 18.1719 6.39844 18.8047 7.50781 19.2734C8.61719 19.7578 9.78125 20 11 20C12.2188 20 13.3828 19.7656 14.4922 19.2969C15.6016 18.8125 16.5625 18.1719 17.375 17.375C18.1719 16.5625 18.8047 15.6016 19.2734 14.4922C19.7578 13.3828 20 12.2188 20 11C20 9.78125 19.7656 8.61719 19.2969 7.50781C18.8125 6.39844 18.1719 5.4375 17.375 4.625C16.5625 3.82812 15.6016 3.19531 14.4922 2.72656C13.3828 2.24219 12.2188 2 11 2ZM14.375 8C14.6406 8 14.875 8.09375 15.0781 8.28125C15.2656 8.48438 15.3594 8.71875 15.3594 8.98438C15.3594 9.26562 15.2656 9.50781 15.0781 9.71094L10.8359 13.9531C10.6328 14.1406 10.3984 14.2344 10.1328 14.2344C9.85156 14.2344 9.60938 14.1406 9.40625 13.9531L7.29688 11.8203C7.09375 11.6328 6.99219 11.3984 6.99219 11.1172C6.99219 10.8359 7.09375 10.6016 7.29688 10.4141C7.48438 10.2109 7.71875 10.1094 8 10.1094C8.28125 10.1094 8.51562 10.2109 8.70312 10.4141L10.1328 11.8203L13.6484 8.28125C13.8516 8.09375 14.0938 8 14.375 8Z" fill="white"/>
</svg>
